<svg xmlns="http://www.w3.org/2000/svg" viewBox="0 0 64 64" width="64" height="64">
  <g fill="#0FA3DB">
    <circle cx="32" cy="32" r="32"/>
  </g>
  <g fill="#ffffff">
    <rect x="30" y="0" width="4" height="6"/>
    <g transform="rotate(15 32 32)"><rect x="30" y="0" width="4" height="6"/></g>
    <g transform="rotate(30 32 32)"><rect x="30" y="0" width="4" height="6"/></g>
    <g transform="rotate(45 32 32)"><rect x="30" y="0" width="4" height="6"/></g>
    <g transform="rotate(60 32 32)"><rect x="30" y="0" width="4" height="6"/></g>
    <g transform="rotate(75 32 32)"><rect x="30" y="0" width="4" height="6"/></g>
    <g transform="rotate(90 32 32)"><rect x="30" y="0" width="4" height="6"/></g>
    <g transform="rotate(105 32 32)"><rect x="30" y="0" width="4" height="6"/></g>
    <g transform="rotate(120 32 32)"><rect x="30" y="0" width="4" height="6"/></g>
    <g transform="rotate(135 32 32)"><rect x="30" y="0" width="4" height="6"/></g>
    <g transform="rotate(150 32 32)"><rect x="30" y="0" width="4" height="6"/></g>
    <g transform="rotate(165 32 32)"><rect x="30" y="0" width="4" height="6"/></g>
    <g transform="rotate(180 32 32)"><rect x="30" y="0" width="4" height="6"/></g>
    <g transform="rotate(195 32 32)"><rect x="30" y="0" width="4" height="6"/></g>
    <g transform="rotate(210 32 32)"><rect x="30" y="0" width="4" height="6"/></g>
    <g transform="rotate(225 32 32)"><rect x="30" y="0" width="4" height="6"/></g>
    <g transform="rotate(240 32 32)"><rect x="30" y="0" width="4" height="6"/></g>
    <g transform="rotate(255 32 32)"><rect x="30" y="0" width="4" height="6"/></g>
    <g transform="rotate(270 32 32)"><rect x="30" y="0" width="4" height="6"/></g>
    <g transform="rotate(285 32 32)"><rect x="30" y="0" width="4" height="6"/></g>
    <g transform="rotate(300 32 32)"><rect x="30" y="0" width="4" height="6"/></g>
    <g transform="rotate(315 32 32)"><rect x="30" y="0" width="4" height="6"/></g>
    <g transform="rotate(330 32 32)"><rect x="30" y="0" width="4" height="6"/></g>
    <g transform="rotate(345 32 32)"><rect x="30" y="0" width="4" height="6"/></g>
  </g>
  <circle cx="32" cy="32" r="22" fill="#0FA3DB"/>
  <circle cx="32" cy="32" r="20" fill="none" stroke="#fff" stroke-width="2"/>
  <g fill="#fff">
    <rect x="30.5" y="12" width="3" height="40"/>
    <g transform="rotate(60 32 32)"><rect x="30.5" y="12" width="3" height="40"/></g>
    <g transform="rotate(120 32 32)"><rect x="30.5" y="12" width="3" height="40"/></g>
  </g>
  <circle cx="32" cy="32" r="5" fill="#0FA3DB"/>
  <circle cx="32" cy="32" r="5" fill="none" stroke="#fff" stroke-width="2"/>
  <circle cx="32" cy="32" r="1.5" fill="#fff"/>
</svg>
